<svg id="Layer_1" data-name="Layer 1" xmlns="http://www.w3.org/2000/svg" viewBox="0 0 1000 287.25"><defs><style>.cls-1{fill:#c3deb8;}.cls-2{fill:#3eb8e5;}.cls-3{fill:#17223b;}</style></defs><path class="cls-1" d="M305.2,392.18c.28,11.33-1.78,40.4,22,75.53,32,47.34,89.36,54,97.45,54.72-19.05,4-76.81.36-115.43-36.73-30.8-29.57-53.89-73.11-40.83-138.4" transform="translate(-262.49 -238.51)"/><path class="cls-1" d="M409.92,525.76c-25.47,0-70.09-7.63-102.23-38.5C269,450.1,255,402.87,266.24,346.87l4.25.85c-10.89,54.45,2.63,100.35,40.2,136.42,29.69,28.51,70.26,36.58,95.3,37.28-21.89-5.22-57.73-18.64-80.62-52.5-22.06-32.64-22.22-60.17-22.29-73.39,0-1.23,0-2.33,0-3.29l4.33-.11c0,1,0,2.12,0,3.37.07,12.8.23,39.45,21.55,71,31.72,46.93,89.38,53.21,95.85,53.77l14.71,1.28-14.46,3A79.18,79.18,0,0,1,409.92,525.76Z" transform="translate(-262.49 -238.51)"/><path class="cls-2" d="M506.2,280.8C470,245.11,422,231.07,374.47,242.28c-73.43,17.33-96,72.65-96.2,73.2l-4.18,11.83,7.9-9.75c9.47-11.67,44.39-49.79,95.95-50.23h1.2c26.05,0,45.14,7.16,59,15.39a25.93,25.93,0,1,0,34.08,28.84c26.17,28.43,33.95,60,37.84,75.87,7,28.46,9.66,60.24,6.27,73.93l-3.67,14.88L520.28,463c2-3.44,3.83-6.52,5.54-9.39,8.49-14.19,14.09-23.56,18.85-46.62C554.71,358.28,541.77,315.84,506.2,280.8Z" transform="translate(-262.49 -238.51)"/><path class="cls-1" d="M521.33,298.47l-7.87-9.24,4.18,11.39c.2.54.5,1.29.88,2.25,20.51,51.29,11,86.95-.54,107.84C503.86,436.22,486.52,450,471.63,458a25.94,25.94,0,1,0-39.78,14.39c-33.68,8.22-61.32,3.46-82.19-1.94-28-7.26-59.37-25.18-68.66-34.33l-11.14-11,7.74,13.59c8.5,14.92,21.34,37.47,41.44,52.52,29.84,22.34,62.77,34.34,92.35,34.34a97.06,97.06,0,0,0,26.19-3.46c53.18-14.94,90.26-49.31,104.41-96.78C564,351.5,525.76,303.68,521.33,298.47Z" transform="translate(-262.49 -238.51)"/><path class="cls-3" d="M424.81,520.4c-6.38-.55-63.32-6.77-95.86-53.79-18.58-26.85-22.37-51.11-22.18-69a26,26,0,1,0,5.13-40.27,164.43,164.43,0,0,1,36-71.55c14.89-17.12,42.41-35.72,58.78-42.34l12.15-4.92-13.09.75c-13,.74-37.17,2.13-63.52,14.56-48.2,22.73-71.68,67.73-77.14,99.36-11.4,66,18.33,104.42,45.5,130.52,32.72,31.42,77.7,41.95,102.88,41.95a58.53,58.53,0,0,0,11.6-1l14.47-3Z" transform="translate(-262.49 -238.51)"/><path class="cls-3" d="M586.08,240.42h0v89.38a60.9,60.9,0,0,0,3.48,21.44,43.52,43.52,0,0,0,9.72,15.62,40.9,40.9,0,0,0,15.1,9.64,55.76,55.76,0,0,0,19.61,3.3,46.81,46.81,0,0,0,18.23-3.48,45,45,0,0,0,14.5-9.54,43.33,43.33,0,0,0,9.63-14.58,48.34,48.34,0,0,0,3.47-18.41c0-6.71-1.13-29.86-3.38-35.47a43.39,43.39,0,0,0-9.38-14.5A42.76,42.76,0,0,0,653,274.35,45.2,45.2,0,0,0,635.37,271a38.64,38.64,0,0,0-17.53,3.82,34.21,34.21,0,0,0-12,9.37v-4.57s0,0,0,0V255.69c0-22.36-19.8-16.49-19.8-16.49S586.08,239.67,586.08,240.42ZM605.69,334c0-4,.66-22.92,2-26.39a31.76,31.76,0,0,1,5.46-9.74,25.8,25.8,0,0,1,8.42-6.45c3.3-1.45,7-2.88,11-2.88a26.6,26.6,0,0,1,10.84,2.17,25.29,25.29,0,0,1,8.51,6,26.49,26.49,0,0,1,5.47,9c1.27,3.48,1.91,24.23,1.91,28.28a31.35,31.35,0,0,1-1.91,11,25.78,25.78,0,0,1-5.47,8.86,26.22,26.22,0,0,1-8.51,5.9,26.77,26.77,0,0,1-10.84,2.17,27.61,27.61,0,0,1-10.85-2.09,25,25,0,0,1-14.06-14.49A30.88,30.88,0,0,1,605.69,334Z" transform="translate(-262.49 -238.51)"/><path class="cls-3" d="M770.57,377.06c-1.14.23-2.93.48-5.37.77s-5.32.56-8.62.85-7,.54-11.09.77-8.36.34-12.79.34q-13.32,0-21.76-2.31t-13.3-6.14a19.79,19.79,0,0,1-6.66-8.87,30.62,30.62,0,0,1-1.79-10.32,32.49,32.49,0,0,1,2.14-12.28,20.25,20.25,0,0,1,7-8.87A34.09,34.09,0,0,1,711,325.62a87.51,87.51,0,0,1,19.11-1.79q6.48,0,12.28.43c3.87.28,6.77.54,8.7.76,0-4,.17-23.52-2-27.91a14.86,14.86,0,0,0-5.38-6.14,21.9,21.9,0,0,0-8.18-3.08A61.37,61.37,0,0,0,725,287q-9.72,0-15.61,2.22T701.65,293a20.84,20.84,0,0,1-2.82-3.24A9.4,9.4,0,0,1,697,284a9.58,9.58,0,0,1,1.28-4.69,11.09,11.09,0,0,1,4.52-4.1,29.5,29.5,0,0,1,8.7-2.81,77.4,77.4,0,0,1,13.82-1,79.48,79.48,0,0,1,18.34,2,40.11,40.11,0,0,1,14.24,6.23c4,2.84,6.78,6.75,9.3,11.25,3.33,5.95,3.33,28.32,3.33,34.92Zm-19.28-37.87q-1.71-.35-6.4-1a107.35,107.35,0,0,0-14.07-.68q-11.61,0-16.89,3.5t-5.29,11a14,14,0,0,0,1.11,5.63,10,10,0,0,0,3.84,4.35,21.29,21.29,0,0,0,7.42,2.73,61.42,61.42,0,0,0,11.69.94,101.25,101.25,0,0,0,12.45-.6q4.61-.6,6.14-.94Z" transform="translate(-262.49 -238.51)"/><path class="cls-3" d="M870.7,293.08A33.75,33.75,0,0,0,862,281.22a37.22,37.22,0,0,0-13.34-7.36,59.78,59.78,0,0,0-34.28,0A38,38,0,0,0,801,281.22a32.34,32.34,0,0,0-8.66,11.86,39.56,39.56,0,0,0-3,15.84V378.1h0c0,.61,0,1,0,1s19.89,5.9,19.89-16.57V338.46l-.15,0V313.25q0-11.78,5.54-17.92t17-6.15q11.43,0,17,6.15t5.54,17.92v27.38h-.15V378.1h0c0,.61,0,1,0,1s19.89,5.9,19.89-16.57v-53.6A38.73,38.73,0,0,0,870.7,293.08Z" transform="translate(-262.49 -238.51)"/><path class="cls-3" d="M973.79,358.07a12.28,12.28,0,0,0-4.1-6.91,26.8,26.8,0,0,0-5.6-4c-1.87,2.74-6.4,10-16.35,12.52a39.84,39.84,0,0,1-5.2.91c-6,.29-11.81-.07-18-2.65a38.18,38.18,0,0,1-10.64-6.83,27.76,27.76,0,0,1-7.1-10.43,41,41,0,0,1-2.57-15.35,40.36,40.36,0,0,1,2.47-14.83,29.89,29.89,0,0,1,6.7-10.44,28.59,28.59,0,0,1,10.15-6.84,49,49,0,0,1,17.23-2.64c10.25.53,16.11,6.75,18.48,9.06a26.15,26.15,0,0,0,4.7-5.05,12.22,12.22,0,0,0,2.66-7.57,11.69,11.69,0,0,0-1.87-6.14,14.53,14.53,0,0,0-6.11-5.52c-4.35-2.14-10.68-4.05-19.84-4.05a66.06,66.06,0,0,0-19.17,3.58,47.33,47.33,0,0,0-28.69,27.73,61.77,61.77,0,0,0-4.14,23.32A58.86,58.86,0,0,0,891,349a48.9,48.9,0,0,0,11.54,16.88,47.35,47.35,0,0,0,10.64,7.5,48.79,48.79,0,0,0,16.91,5.78,65.71,65.71,0,0,0,19.49-.26c9-1.8,14.82-4.92,18.66-7.86a14.57,14.57,0,0,0,4.9-6.62A11.64,11.64,0,0,0,973.79,358.07Z" transform="translate(-262.49 -238.51)"/><path class="cls-3" d="M1063.69,377.06c-1.13.23-2.93.48-5.37.77s-5.32.56-8.61.85-7,.54-11.09.77-8.36.34-12.8.34q-13.3,0-21.75-2.31t-13.31-6.14a19.69,19.69,0,0,1-6.65-8.87,30.62,30.62,0,0,1-1.79-10.32,32.69,32.69,0,0,1,2.13-12.28,20.2,20.2,0,0,1,7-8.87,34,34,0,0,1,12.71-5.38,87.48,87.48,0,0,1,19.1-1.79q6.48,0,12.29.43c3.86.28,6.76.54,8.7.76,0-4,.17-23.52-2-27.91a14.84,14.84,0,0,0-5.37-6.14,22,22,0,0,0-8.19-3.08,61.2,61.2,0,0,0-10.58-.85q-9.72,0-15.61,2.22T994.77,293a20.91,20.91,0,0,1-2.81-3.24,9.34,9.34,0,0,1-1.79-5.8,9.47,9.47,0,0,1,1.28-4.69,11,11,0,0,1,4.52-4.1,29.5,29.5,0,0,1,8.7-2.81,77.32,77.32,0,0,1,13.82-1,79.48,79.48,0,0,1,18.34,2,40.11,40.11,0,0,1,14.24,6.23c4,2.84,6.78,6.75,9.3,11.25,3.32,5.95,3.32,28.32,3.32,34.92Zm-19.27-37.87q-1.71-.35-6.4-1a107.42,107.42,0,0,0-14.08-.68q-11.6,0-16.88,3.5t-5.29,11a13.84,13.84,0,0,0,1.11,5.63,9.89,9.89,0,0,0,3.83,4.35,21.35,21.35,0,0,0,7.43,2.73,61.3,61.3,0,0,0,11.68.94,101.54,101.54,0,0,0,12.46-.6c3.07-.4,5.11-.71,6.14-.94Z" transform="translate(-262.49 -238.51)"/><path class="cls-3" d="M835.43,523c-1.14.23-2.93.48-5.38.77s-5.32.57-8.61.85-7,.54-11.09.77-8.36.34-12.8.34q-13.31,0-21.75-2.3t-13.31-6.14a19.79,19.79,0,0,1-6.65-8.88,30.62,30.62,0,0,1-1.79-10.32,32.73,32.73,0,0,1,2.13-12.28,20.39,20.39,0,0,1,7-8.87,33.86,33.86,0,0,1,12.71-5.37,86.81,86.81,0,0,1,19.1-1.8q6.48,0,12.29.43c3.86.29,6.76.54,8.7.77,0-4,.17-23.53-2-27.92a15,15,0,0,0-5.38-6.14,21.94,21.94,0,0,0-8.19-3.07,60.15,60.15,0,0,0-10.57-.86q-9.74,0-15.61,2.22T766.5,439a20.63,20.63,0,0,1-2.81-3.25,9.34,9.34,0,0,1-1.79-5.8,9.5,9.5,0,0,1,1.28-4.69,11.07,11.07,0,0,1,4.52-4.09,29.48,29.48,0,0,1,8.7-2.82,77.32,77.32,0,0,1,13.82-1,79.48,79.48,0,0,1,18.34,2,40.29,40.29,0,0,1,14.24,6.23c4,2.84,6.78,6.75,9.3,11.26,3.33,5.94,3.33,28.32,3.33,34.91Zm-19.28-37.87q-1.71-.35-6.4-1a107.35,107.35,0,0,0-14.07-.68q-11.61,0-16.89,3.5t-5.29,11a14,14,0,0,0,1.11,5.63,9.86,9.86,0,0,0,3.84,4.35,20.82,20.82,0,0,0,7.42,2.73,60.5,60.5,0,0,0,11.68.94A101.43,101.43,0,0,0,810,511c3.07-.39,5.11-.71,6.14-.94Z" transform="translate(-262.49 -238.51)"/><path class="cls-3" d="M735.23,438.86a33.17,33.17,0,0,0-8.8-11.69,39.48,39.48,0,0,0-13.52-7.32,55.43,55.43,0,0,0-17.1-2.53,54.58,54.58,0,0,0-17,2.53,39.52,39.52,0,0,0-13.43,7.32c-.74.63-1.42,1.3-2.09,2-.68-.68-1.35-1.35-2.09-2a39.39,39.39,0,0,0-13.52-7.32,55.32,55.32,0,0,0-17.09-2.53,54.49,54.49,0,0,0-17,2.53,39.33,39.33,0,0,0-13.43,7.32,33.92,33.92,0,0,0-8.9,11.69A36.43,36.43,0,0,0,588,454.47v69.6h0c0,.62,0,1,0,1s19.89,5.9,19.89-16.57v-49q0-11.85,5.67-18t17-6.19q11.16,0,16.92,6.19t5.75,18v64.62h0v.11h0c0,.54,0,.88,0,.88s19.89,5.9,19.89-16.57v-49q0-11.79,5.66-18t17-6.19q11.16,0,16.92,6.19t5.76,18v64.65h0c0,.54,0,.88,0,.88s19.89,5.9,19.89-16.57v-54A37.17,37.17,0,0,0,735.23,438.86Z" transform="translate(-262.49 -238.51)"/><path class="cls-1" d="M873.77,385.2s-20.36-6.05-20.36,16.95v24.61c1-15.62,20.31-11.17,20.31-32.91C873.72,389.19,873.77,385.2,873.77,385.2Z" transform="translate(-262.49 -238.51)"/><path class="cls-3" d="M912.53,500.16a107.92,107.92,0,0,1-12.71,6,28,28,0,0,1-9.64,1.61A26.44,26.44,0,0,1,884,507a13,13,0,0,1-5.17-2.5,11.81,11.81,0,0,1-3.48-4.73,18.8,18.8,0,0,1-1.23-7l0-40.42h34.21a33.52,33.52,0,0,0,1.43-3.66,17.25,17.25,0,0,0,.89-5.62q0-4.65-2.41-7.05c-1.61-1.61-4.37-2.41-8.3-2.41H874.19l0-23a16.14,16.14,0,0,1-4.1,8.16,63.73,63.73,0,0,1-5.5,4.86c-2.67,2.19-4.23,2.71-6.9,5.69-2.31,2.57-3.85,8.27-3.85,11.48l-.09,55.23.05.05-.05.14q0,13.21,8,21.33t23.74,8.12a49.61,49.61,0,0,0,10.18-1,57.5,57.5,0,0,0,8.39-2.41,48,48,0,0,0,6.45-3c1.78-1,9.23-4.9,10.18-5.62Z" transform="translate(-262.49 -238.51)"/><path class="cls-3" d="M1010.3,516.84c-.95.59-2.43,1.4-4.45,2.45a45.64,45.64,0,0,1-7.57,3,86.15,86.15,0,0,1-10.51,2.45,75.72,75.72,0,0,1-13.09,1,56.92,56.92,0,0,1-18.62-3A43.42,43.42,0,0,1,940.92,514c-4.33-3.9-8.8-11.12-11.26-18-3.12-8.77-2.62-14.14-3-23.19-.41-9.61,2.24-21.78,4.67-27.55a43.73,43.73,0,0,1,10.16-14.86,45.93,45.93,0,0,1,15.31-9.61,53,53,0,0,1,19.33-3.41,52.22,52.22,0,0,1,16.39,2.36,38.29,38.29,0,0,1,12,6.29,26.46,26.46,0,0,1,7.57,31.47,20.17,20.17,0,0,1-8.19,8.56q-5.88,3.58-15.86,5.59t-25.29,2c-2.38,0-4.6,0-6.68-.09s-5.48-.12-7.85-.24c-.28,12.51-.55,21.27,8.6,29.48,4.57,4.1,12.61,6.22,21.76,6.22a48.32,48.32,0,0,0,8.54-.7,49.61,49.61,0,0,0,12.38-3.85c1.49-.7,2.59-1.22,3.3-1.57Zm-61.78-57.22c2.73.12,5.35.18,7.84.18h7.48a82.5,82.5,0,0,0,15.85-1.23,32.06,32.06,0,0,0,9.44-3.15,9.87,9.87,0,0,0,4.46-4.36,12.63,12.63,0,0,0,1.06-5.07,10.93,10.93,0,0,0-5.43-10,25.38,25.38,0,0,0-13.45-3.32A27.71,27.71,0,0,0,964.2,435a25.27,25.27,0,0,0-8.38,6,27.71,27.71,0,0,0-5.25,8.66A30.69,30.69,0,0,0,948.52,459.62Z" transform="translate(-262.49 -238.51)"/><path class="cls-3" d="M1086.65,420.4q-7.08-3.07-18.37-3.08-17.94,0-28.06,8.88c-6.76,5.93-9.57,14.29-9.57,25.08v73.08h0v.7s19.86,5.86,19.86-16.42v-1h0V457.08q0-21.81,21-21.82a38.66,38.66,0,0,1,10.22,1.24,49,49,0,0,1,7.53,2.64,11.93,11.93,0,0,0,2.78-3.52,11.13,11.13,0,0,0,1.7-5.81Q1093.73,423.48,1086.65,420.4Z" transform="translate(-262.49 -238.51)"/><path class="cls-2" d="M1127.55,384.3s-19.78-5.87-19.78,16.47v23.92c1-15.18,19.73-10.85,19.73-32C1127.5,388.18,1127.55,384.3,1127.55,384.3Z" transform="translate(-262.49 -238.51)"/><path class="cls-3" d="M1127.66,410.7a15.78,15.78,0,0,1-4,7.93,61.32,61.32,0,0,1-5.34,4.72c-2.59,2.13-4.11,2.64-6.7,5.53-2.25,2.5-3.74,8-3.74,11.16l-.09,80.41h0c0,2.7,0,4.62,0,4.62s19.77,5.87,19.77-16.46h0Z" transform="translate(-262.49 -238.51)"/><path class="cls-3" d="M1223.59,523c-1.14.23-2.93.48-5.37.77s-5.32.57-8.62.85-7,.54-11.09.77-8.36.34-12.79.34q-13.31,0-21.75-2.3t-13.31-6.14a19.72,19.72,0,0,1-6.65-8.88,30.37,30.37,0,0,1-1.79-10.32,32.53,32.53,0,0,1,2.13-12.28,20.36,20.36,0,0,1,7-8.87,33.93,33.93,0,0,1,12.71-5.37,86.84,86.84,0,0,1,19.11-1.8q6.48,0,12.28.43c3.87.29,6.77.54,8.7.77,0-4,.17-23.53-2-27.92a15,15,0,0,0-5.37-6.14,22,22,0,0,0-8.19-3.07A60.26,60.26,0,0,0,1178,433q-9.72,0-15.61,2.22t-7.76,3.76a21.09,21.09,0,0,1-2.82-3.25,9.4,9.4,0,0,1-1.79-5.8,9.61,9.61,0,0,1,1.28-4.69,11.14,11.14,0,0,1,4.52-4.09,29.48,29.48,0,0,1,8.7-2.82,77.4,77.4,0,0,1,13.82-1,79.48,79.48,0,0,1,18.34,2,40.34,40.34,0,0,1,14.25,6.23c4,2.84,6.77,6.75,9.29,11.26,3.33,5.94,3.33,28.32,3.33,34.91Zm-19.28-37.87c-1.13-.23-3.27-.57-6.39-1a107.42,107.42,0,0,0-14.08-.68q-11.6,0-16.89,3.5t-5.29,11a14,14,0,0,0,1.11,5.63,9.93,9.93,0,0,0,3.84,4.35,20.9,20.9,0,0,0,7.42,2.73,60.61,60.61,0,0,0,11.69.94,101.25,101.25,0,0,0,12.45-.6c3.07-.39,5.12-.71,6.14-.94Z" transform="translate(-262.49 -238.51)"/><path class="cls-3" d="M1262.44,471.79l0-55.4c0,.07,0,.12,0,.19V385.53c-.58-.23-1.74-.61-3.47-1.13a19.9,19.9,0,0,0-5.73-.78q-5,0-7.81,2.25t-2.77,6.94V493.07l0,27.4h0c0,2.7,0,4.62,0,4.62s17.94,5.28,19.62-13.6h.22Z" transform="translate(-262.49 -238.51)"/></svg>